HIERARCHY
ROOT Hips
{
	OFFSET -0.001795 -0.223333 0.028219
	CHANNELS 6 Xposition Yposition Zposition Zrotation Yrotation Xrotation 
	JOINT LeftUpLeg
	{
		OFFSET 0.069520 -0.091406 -0.006815
		CHANNELS 3 Zrotation Yrotation Xrotation
		JOINT LeftLeg
		{
			OFFSET 0.034277 -0.375199 -0.004496
			CHANNELS 3 Zrotation Yrotation Xrotation
			JOINT LeftFoot
			{
				OFFSET -0.013596 -0.397961 -0.043693
				CHANNELS 3 Zrotation Yrotation Xrotation
				JOINT LeftToe
				{
					OFFSET 0.026358 -0.055791 0.119288
					CHANNELS 3 Zrotation Yrotation Xrotation
					End Site
					{
						OFFSET 0.000000 0.000000 0.000000
					}
				}
			}
		}
	}
	JOINT RightUpLeg
	{
		OFFSET -0.067670 -0.090522 -0.004320
		CHANNELS 3 Zrotation Yrotation Xrotation
		JOINT RightLeg
		{
			OFFSET -0.038290 -0.382569 -0.008850
			CHANNELS 3 Zrotation Yrotation Xrotation
			JOINT RightFoot
			{
				OFFSET 0.015774 -0.398415 -0.042312
				CHANNELS 3 Zrotation Yrotation Xrotation
				JOINT RightToe
				{
					OFFSET -0.025372 -0.048144 0.123348
					CHANNELS 3 Zrotation Yrotation Xrotation
					End Site
					{
						OFFSET 0.000000 0.000000 0.000000
					}
				}
			}
		}
	}
	JOINT Spine
	{
		OFFSET -0.002533 0.108963 -0.026696
		CHANNELS 3 Zrotation Yrotation Xrotation
		JOINT Spine1
		{
			OFFSET 0.005487 0.135180 0.001092
			CHANNELS 3 Zrotation Yrotation Xrotation
			JOINT Spine2
			{
				OFFSET 0.001457 0.052922 0.025425
				CHANNELS 3 Zrotation Yrotation Xrotation
				JOINT Neck
				{
					OFFSET -0.002778 0.213870 -0.042857
					CHANNELS 3 Zrotation Yrotation Xrotation
					JOINT Head
					{
						OFFSET 0.005152 0.064970 0.051349
						CHANNELS 3 Zrotation Yrotation Xrotation
						End Site
						{
							OFFSET 0.000000 0.000000 0.000000
						}
					}
				}
				JOINT LeftShoulder
				{
					OFFSET 0.078845 0.121749 -0.034090
					CHANNELS 3 Zrotation Yrotation Xrotation
					JOINT LeftArm
					{
						OFFSET 0.090977 0.030469 -0.008868
						CHANNELS 3 Zrotation Yrotation Xrotation
						JOINT LeftForeArm
						{
							OFFSET 0.259612 -0.012772 -0.027456
							CHANNELS 3 Zrotation Yrotation Xrotation
							JOINT LeftHand
							{
								OFFSET 0.249234 0.008986 -0.001171
								CHANNELS 3 Zrotation Yrotation Xrotation
								End Site
								{
									OFFSET 0.000000 0.000000 0.000000
								}
							}
						}
					}
				}
				JOINT RightShoulder
				{
					OFFSET -0.081759 0.118833 -0.038615
					CHANNELS 3 Zrotation Yrotation Xrotation
					JOINT RightArm
					{
						OFFSET -0.096012 0.032551 -0.009143
						CHANNELS 3 Zrotation Yrotation Xrotation
						JOINT RightForeArm
						{
							OFFSET -0.253742 -0.013329 -0.021401
							CHANNELS 3 Zrotation Yrotation Xrotation
							JOINT RightHand
							{
								OFFSET -0.255298 0.007772 -0.005559
								CHANNELS 3 Zrotation Yrotation Xrotation
								End Site
								{
									OFFSET 0.000000 0.000000 0.000000
								}
							}
						}
					}
				}
			}
		}
	}
}
MOTION
Frames: 16
Frame Time: 0.050000
0.000000 0.938214 0.000000 7.904018 3.671302 13.382042 -1.832506 -1.214813 -11.994203 -2.674291 0.103450 9.448528 -10.784654 -16.567953 8.103438 0.000000 0.000000 0.000000 -11.582730 0.257915 -23.474510 -7.094632 2.386044 17.561825 7.112061 14.148489 5.497708 0.000000 0.000000 0.000000 11.153776 -3.378390 18.472496 3.334924 -1.837548 3.922053 3.085924 8.806552 6.883165 13.336799 -5.286542 -19.200964 0.000000 0.000000 0.000000 -24.998597 -17.180463 4.599845 -47.727988 1.198680 -5.053379 -19.758382 -45.854339 9.009469 0.000000 0.000000 0.000000 17.999251 23.289979 14.171292 14.271915 30.195959 0.231131 -12.557905 10.578349 -0.502273 0.000000 0.000000 0.000000 
-0.000342 0.940118 -0.001123 9.030100 3.506757 14.538048 -2.711335 -1.330308 -12.603629 -2.557408 0.101079 8.475042 -11.982622 -18.011930 9.171653 0.000000 0.000000 0.000000 -12.828868 0.027072 -24.969395 -7.102100 2.417863 17.997021 7.271608 13.964660 6.281727 0.000000 0.000000 0.000000 11.535791 -3.442592 18.076577 3.480662 -1.897067 3.826161 3.131496 8.437745 6.759650 14.756195 -6.673959 -17.211003 0.000000 0.000000 0.000000 -27.285342 -17.251770 4.716256 -46.135832 2.482348 -5.160920 -18.065713 -46.101814 8.443475 0.000000 0.000000 0.000000 17.014091 24.328020 14.526726 14.269132 28.637242 0.074598 -13.372361 12.922840 -0.745271 0.000000 0.000000 0.000000 
-0.000648 0.938982 -0.001987 9.282809 3.862629 14.259861 -2.661728 -1.278252 -12.148842 -2.537434 0.093328 8.426100 -12.520583 -19.502416 8.620085 0.000000 0.000000 0.000000 -13.424907 -0.136257 -24.997244 -6.416834 2.289408 18.794340 7.089775 13.836875 5.884634 0.000000 0.000000 0.000000 11.620706 -3.422699 17.867549 3.079821 -1.738053 4.254851 3.702059 7.041017 5.743382 12.630414 -5.785201 -15.902092 0.000000 0.000000 0.000000 -26.261658 -14.375556 3.482958 -47.147362 2.521191 -5.515656 -20.245633 -44.155760 9.092079 0.000000 0.000000 0.000000 17.901014 24.333612 14.351439 14.146462 27.424864 0.014212 -11.408326 11.814921 -0.520704 0.000000 0.000000 0.000000 
-0.001277 0.940238 -0.002483 10.206108 5.057559 14.263117 -3.656398 -1.249890 -11.521106 -2.210984 0.025679 8.180086 -12.407359 -19.898957 7.837850 0.000000 0.000000 0.000000 -14.913821 -0.523402 -24.756005 -5.240584 1.955583 19.374251 6.751839 12.942927 6.104164 0.000000 0.000000 0.000000 12.105224 -3.625692 18.093174 3.381096 -2.040444 5.733812 3.444660 7.234538 4.170410 12.209946 -5.368413 -16.060842 0.000000 0.000000 0.000000 -26.127633 -15.276881 3.725890 -47.265637 3.238058 -5.578328 -19.828427 -43.905995 8.725437 0.000000 0.000000 0.000000 17.697561 24.047047 14.289869 14.394416 26.553958 0.035082 -11.179472 12.169653 -0.517907 0.000000 0.000000 0.000000 
-0.002031 0.939775 -0.002647 10.737281 6.131075 14.039030 -3.816232 -1.165894 -10.821723 -2.469774 0.075534 7.248658 -13.261833 -20.637694 8.779089 0.000000 0.000000 0.000000 -15.211876 -0.672720 -24.261856 -5.405354 1.987072 19.822276 6.284052 12.227130 5.622499 0.000000 0.000000 0.000000 12.561857 -3.818169 18.390963 3.404203 -2.010744 4.939799 3.163804 6.472342 4.402164 11.026179 -4.874134 -15.128809 0.000000 0.000000 0.000000 -27.625646 -15.002885 3.598778 -45.446302 4.131819 -5.617161 -21.819311 -42.949747 9.409384 0.000000 0.000000 0.000000 18.895698 23.416319 14.166903 14.086584 25.625335 -0.097773 -10.637554 11.968229 -0.467627 0.000000 0.000000 0.000000 
-0.002913 0.939382 -0.002683 11.143316 6.382656 14.305134 -3.900985 -1.204026 -11.085555 -2.513217 0.088101 6.840324 -14.421265 -21.635748 10.116029 0.000000 0.000000 0.000000 -15.763965 -0.840075 -24.759802 -5.052848 1.910197 20.510651 6.179042 12.048793 5.545245 0.000000 0.000000 0.000000 12.818074 -3.902682 18.400957 3.229383 -1.914514 4.812329 3.011833 6.558776 4.742715 10.053255 -4.189594 -15.408876 0.000000 0.000000 0.000000 -27.792632 -15.086233 3.550739 -45.664705 4.370250 -5.717016 -21.647628 -42.977479 9.318355 0.000000 0.000000 0.000000 18.101147 22.635513 13.566372 15.652699 24.978379 0.042637 -10.955870 12.776212 -0.531670 0.000000 0.000000 0.000000 
-0.003749 0.938618 -0.002856 11.342589 6.824623 13.937328 -4.135976 -1.214818 -11.051098 -2.580999 0.097731 6.642927 -15.002945 -21.077146 11.848194 0.000000 0.000000 0.000000 -15.880636 -0.919060 -24.654199 -5.010572 1.925503 21.359587 6.022554 11.863755 5.272671 0.000000 0.000000 0.000000 12.756650 -4.000571 19.020247 3.186645 -1.810684 3.769055 3.150554 6.123170 5.620958 10.086682 -4.132450 -15.978799 0.000000 0.000000 0.000000 -27.470958 -14.493458 3.304298 -45.453767 4.888439 -5.985292 -22.738027 -42.725600 9.724842 0.000000 0.000000 0.000000 18.700176 22.124901 13.366815 16.638597 24.499263 0.075718 -11.282233 13.239327 -0.587066 0.000000 0.000000 0.000000 
-0.004467 0.937160 -0.003310 11.117323 7.051951 13.592660 -4.121597 -1.270055 -11.420938 -2.589176 0.088941 6.980584 -14.917556 -19.843385 13.017197 0.000000 0.000000 0.000000 -15.491356 -0.905655 -25.115942 -5.102340 2.021397 22.806175 5.979110 11.849871 5.121234 0.000000 0.000000 0.000000 12.977415 -4.122437 19.406685 3.139372 -1.792620 3.788025 3.164447 6.021594 5.751101 9.378369 -3.723911 -15.884204 0.000000 0.000000 0.000000 -27.042511 -14.638587 3.441047 -45.891442 5.062844 -6.157930 -21.926575 -42.239146 9.284868 0.000000 0.000000 0.000000 18.841240 21.498475 13.025991 18.231856 24.439430 0.237250 -11.936055 13.743661 -0.666752 0.000000 0.000000 0.000000 
-0.005027 0.935622 -0.003703 10.968594 7.083832 13.240188 -4.215127 -1.318043 -11.695601 -2.362231 0.045323 7.370714 -14.986147 -19.184217 13.907198 0.000000 0.000000 0.000000 -15.196714 -0.872401 -25.338665 -5.250682 2.120540 23.763856 5.947358 11.962982 4.817129 0.000000 0.000000 0.000000 12.731737 -4.135509 19.882637 3.133090 -1.774604 3.604646 3.393004 5.466370 5.736119 8.532832 -3.298029 -15.717250 0.000000 0.000000 0.000000 -26.405983 -14.172518 3.432007 -45.710192 4.759618 -6.129736 -21.427637 -41.884581 9.079586 0.000000 0.000000 0.000000 19.761920 21.295416 12.951544 19.319168 24.339486 0.351805 -12.559447 14.828988 -0.798523 0.000000 0.000000 0.000000 
-0.005510 0.933739 -0.003749 10.817454 7.699999 12.841576 -4.147857 -1.389150 -12.182565 -2.714380 0.073409 8.061533 -14.633816 -17.374843 15.229351 0.000000 0.000000 0.000000 -14.992688 -0.923516 -25.589318 -5.113185 2.116864 25.302435 5.763016 11.691228 4.563898 0.000000 0.000000 0.000000 12.661649 -4.140899 19.938494 3.382755 -1.923749 3.741065 3.394757 4.982415 5.654695 7.473748 -2.720990 -15.445970 0.000000 0.000000 0.000000 -26.021182 -14.166622 3.540493 -45.763395 4.073615 -5.943508 -20.159368 -41.044630 8.432412 0.000000 0.000000 0.000000 20.686899 20.699433 12.733303 20.470312 23.849083 0.409666 -12.997514 15.836542 -0.911999 0.000000 0.000000 0.000000 
-0.005781 0.932275 -0.003578 10.358746 8.022602 12.404479 -3.642682 -1.362596 -12.176726 -2.965372 0.098296 8.490882 -14.238899 -16.655442 15.222524 0.000000 0.000000 0.000000 -14.480648 -0.859404 -25.682346 -5.024433 2.117217 26.339771 5.687738 11.587926 4.435667 0.000000 0.000000 0.000000 12.351847 -4.101480 20.153691 3.404872 -1.963186 3.961512 3.701810 4.462707 5.523395 6.832383 -2.485379 -14.794790 0.000000 0.000000 0.000000 -26.031044 -14.160529 3.719854 -45.558439 3.050710 -5.599325 -19.612382 -41.115873 8.298079 0.000000 0.000000 0.000000 21.836480 20.546935 12.748047 22.080286 23.176246 0.497752 -12.445768 17.431830 -0.963905 0.000000 0.000000 0.000000 
-0.005957 0.930671 -0.003773 9.806403 8.271610 11.783542 -3.229449 -1.366383 -12.338895 -3.133141 0.098074 9.495089 -13.329146 -15.247831 14.970150 0.000000 0.000000 0.000000 -13.893736 -0.767035 -25.683478 -4.924176 2.118768 27.426826 5.657774 11.562595 4.338838 0.000000 0.000000 0.000000 12.039294 -3.986279 20.044279 3.347570 -2.021933 4.791533 3.770690 3.931182 5.356724 6.061964 -2.007976 -15.105455 0.000000 0.000000 0.000000 -25.579376 -14.067204 3.866262 -45.851490 1.907553 -5.315865 -18.211211 -41.617454 7.922148 0.000000 0.000000 0.000000 22.654623 20.227314 12.534913 23.467164 23.206719 0.679539 -12.015155 19.590803 -1.052308 0.000000 0.000000 0.000000 
-0.005769 0.929416 -0.004941 9.173354 9.049786 11.388411 -2.670079 -1.400851 -12.822435 -3.341963 0.087688 10.698707 -12.355814 -13.982327 14.310542 0.000000 0.000000 0.000000 -13.371444 -0.745202 -25.796177 -4.539767 1.958172 28.487087 5.505200 11.109201 4.483254 0.000000 0.000000 0.000000 11.835766 -3.980467 20.156788 3.214652 -1.975086 4.824360 4.087991 3.594135 5.359629 5.621221 -1.686184 -15.486618 0.000000 0.000000 0.000000 -25.288155 -13.997576 3.850021 -46.048509 0.587620 -4.894679 -17.850578 -42.785125 8.018486 0.000000 0.000000 0.000000 22.807527 20.231560 12.551679 25.191974 23.127138 0.849869 -11.728932 20.739433 -1.075285 0.000000 0.000000 0.000000 
-0.005336 0.928112 -0.007430 8.427794 9.099251 10.928345 -2.399822 -1.509749 -13.755986 -2.997730 -0.040034 12.766794 -11.073691 -12.582355 13.204124 0.000000 0.000000 0.000000 -12.548297 -0.593238 -26.177564 -4.646388 2.034059 29.446552 5.594482 11.141239 4.731896 0.000000 0.000000 0.000000 11.449806 -3.873215 20.176313 3.042322 -1.934211 5.285742 4.360016 3.724496 5.567587 5.115904 -1.277203 -16.165635 0.000000 0.000000 0.000000 -24.534003 -13.992428 3.839236 -46.789016 -0.626925 -4.594128 -17.704309 -44.106031 8.204060 0.000000 0.000000 0.000000 22.601777 20.382515 12.624283 26.371407 23.767469 1.089137 -12.144219 21.648675 -1.191277 0.000000 0.000000 0.000000 
-0.004754 0.927483 -0.010924 7.775153 9.728335 10.682862 -2.040477 -1.633014 -14.863095 -2.826792 -0.156854 14.509447 -10.304109 -11.452990 12.823243 0.000000 0.000000 0.000000 -12.194344 -0.590457 -26.463295 -4.090144 1.784204 30.125915 5.540639 10.750144 5.162959 0.000000 0.000000 0.000000 11.258013 -3.896118 20.410442 2.605961 -1.756916 5.660495 4.676711 4.039020 5.270163 4.977869 -1.059474 -16.737953 0.000000 0.000000 0.000000 -23.810635 -14.404162 3.918029 -47.276490 -1.663923 -4.217151 -18.010403 -45.841265 8.586539 0.000000 0.000000 0.000000 21.962332 20.831257 12.915036 26.395828 24.649738 1.258759 -11.905809 21.189717 -1.120841 0.000000 0.000000 0.000000 
-0.004341 0.926979 -0.014874 7.046426 9.949767 10.498124 -1.587107 -1.733980 -15.908043 -2.642833 -0.276781 16.194472 -9.450154 -10.606324 11.896876 0.000000 0.000000 0.000000 -11.588954 -0.491090 -26.847360 -3.882593 1.694666 30.516909 5.578678 10.594297 5.555735 0.000000 0.000000 0.000000 10.791387 -3.827501 20.625648 2.273469 -1.602248 5.813222 4.925421 4.373416 5.443735 5.336381 -1.251040 -16.637986 0.000000 0.000000 0.000000 -23.815591 -15.039273 4.165927 -47.485967 -2.539744 -3.893089 -18.368664 -48.027952 9.140209 0.000000 0.000000 0.000000 21.379287 21.773689 13.479834 25.737651 25.557330 1.335907 -12.819204 20.530993 -1.224138 0.000000 0.000000 0.000000 
